<svg width="40" height="40" viewBox="0 0 40 40" fill="none" xmlns="http://www.w3.org/2000/svg">
<circle cx="20" cy="20" r="19" stroke="white" stroke-opacity="0.5" stroke-width="2"/>
<path d="M30.7864 25.5616C30.7864 25.4658 30.6948 25.4658 30.6948 25.3699C30.3288 24.6027 29.5052 23.6438 28.4071 22.589C27.858 22.1096 27.5835 21.726 27.4004 21.5342C27.1259 21.1507 27.1259 20.863 27.2174 20.4795C27.3089 20.1918 27.675 19.7123 28.3155 18.8493C28.6816 18.3699 28.8646 18.0822 29.1391 17.7945C30.5118 15.8767 31.1524 14.6301 30.9694 14.0548L30.8779 13.9589C30.7864 13.863 30.6948 13.7671 30.5118 13.7671C30.3288 13.6712 30.0543 13.6712 29.7797 13.7671H26.3023C26.2108 13.7671 26.2108 13.7671 26.0278 13.7671C25.9362 13.7671 25.8447 13.7671 25.8447 13.7671H25.7532H25.6617L25.5702 13.863C25.4787 13.9589 25.4787 13.9589 25.4787 14.0548C25.1126 15.1096 24.6551 15.9726 24.1975 16.9315C23.923 17.411 23.6485 17.8904 23.3739 18.274C23.0994 18.6575 22.9164 18.9452 22.7333 19.137C22.5503 19.3288 22.3673 19.4247 22.2758 19.6164C22.1843 19.7123 22.0013 19.8082 22.0013 19.7123C21.9097 19.7123 21.8182 19.7123 21.8182 19.6164C21.7267 19.5205 21.6352 19.4247 21.5437 19.3288C21.4522 19.2329 21.4522 19.0411 21.3607 18.8493C21.3607 18.6575 21.3607 18.4657 21.3607 18.3699C21.3607 18.274 21.3607 17.9863 21.3607 17.7945C21.3607 17.5069 21.3607 17.3151 21.3607 17.2192C21.3607 16.9315 21.3607 16.548 21.3607 16.1644C21.3607 15.7808 21.3607 15.4931 21.3607 15.3014C21.3607 15.1096 21.3607 14.8219 21.3607 14.6301C21.3607 14.3425 21.3607 14.1507 21.3607 14.0548C21.3607 13.9589 21.2692 13.7671 21.2692 13.6712C21.1777 13.5753 21.0861 13.4794 20.9946 13.3836C20.9031 13.2877 20.7201 13.2877 20.6286 13.1918C20.171 13.0959 19.622 13 18.9814 13C17.5172 13 16.5106 13.0959 16.1445 13.2877C15.9615 13.3836 15.7785 13.4794 15.687 13.6712C15.5039 13.863 15.5039 13.9589 15.5955 13.9589C16.053 14.0548 16.4191 14.2466 16.6021 14.5342L16.6936 14.726C16.7851 14.8219 16.7851 15.0137 16.8766 15.3014C16.9681 15.589 16.9681 15.8767 16.9681 16.2603C16.9681 16.8356 16.9681 17.411 16.9681 17.7945C16.9681 18.274 16.8766 18.5616 16.8766 18.8493C16.8766 19.137 16.7851 19.3288 16.6936 19.4247C16.6021 19.6164 16.6021 19.7123 16.5106 19.7123C16.5106 19.7123 16.5106 19.8082 16.4191 19.8082C16.3275 19.8082 16.236 19.9041 16.053 19.9041C15.9615 19.9041 15.7785 19.8082 15.687 19.7123C15.5039 19.6164 15.3209 19.4247 15.2294 19.2329C15.0464 19.0411 14.8634 18.7534 14.6803 18.3699C14.4973 17.9863 14.2228 17.6027 14.0397 17.0274L13.8567 16.6438C13.7652 16.4521 13.5822 16.0685 13.3992 15.589C13.2162 15.1096 13.0331 14.726 12.8501 14.2466C12.7586 14.0548 12.6671 13.9589 12.5756 13.863H12.4841C12.4841 13.863 12.3925 13.7671 12.301 13.7671C12.2095 13.7671 12.118 13.6712 12.0265 13.6712H8.73209C8.36605 13.6712 8.18303 13.7671 8.09152 13.863L8 13.9589C8 13.9589 8 14.0548 8 14.1507C8 14.2466 8.00001 14.3425 8.09152 14.5342C8.54907 15.6849 9.09814 16.8356 9.64721 17.9863C10.1963 19.0411 10.7454 20 11.1114 20.6712C11.569 21.3425 11.935 22.0137 12.3926 22.589C12.8501 23.1644 13.1246 23.5479 13.2162 23.7397C13.3992 23.9315 13.4907 24.0274 13.5822 24.1233L13.8567 24.411C14.0398 24.6027 14.3143 24.8904 14.6803 25.1781C15.0464 25.4658 15.5039 25.7534 15.9615 26.0411C16.4191 26.3288 16.9681 26.5206 17.5172 26.7123C18.1578 26.9041 18.7068 27 19.2559 26.9041H20.6286C20.9031 26.9041 21.0862 26.8082 21.2692 26.6164L21.3607 26.5205C21.3607 26.4247 21.4522 26.4247 21.4522 26.3288C21.4522 26.2329 21.4522 26.137 21.4522 25.9452C21.4522 25.5617 21.4522 25.274 21.5437 24.9863C21.6352 24.6986 21.6352 24.5069 21.7267 24.3151C21.8182 24.1233 21.9097 24.0274 22.0013 23.9315C22.0928 23.8356 22.1843 23.7397 22.1843 23.7397H22.2758C22.4588 23.6438 22.7333 23.7397 22.9164 23.9315C23.1909 24.1233 23.4654 24.411 23.6485 24.6986C23.8315 24.9863 24.106 25.274 24.4721 25.6575C24.8381 26.0411 25.1127 26.3288 25.2957 26.4247L25.5702 26.6164C25.7532 26.7123 25.9363 26.8082 26.2108 26.9041C26.4853 27 26.6683 27 26.8514 27L29.9628 26.9041C30.2373 26.9041 30.5118 26.8082 30.6948 26.7123C30.8779 26.6164 30.9694 26.5205 30.9694 26.3288C30.9694 26.2329 30.9694 26.0411 30.9694 25.9452C30.7863 25.7534 30.7864 25.6575 30.7864 25.5616Z" fill="white"/>
</svg>
